<svg width="44" height="40" viewBox="0 0 44 40" fill="none" xmlns="http://www.w3.org/2000/svg">
<path d="M25.8471 38.6959C25.525 39.016 25.0905 39.1976 24.6364 39.2021C24.1823 39.2065 23.7444 39.0336 23.4159 38.7199C23.2551 38.5675 23.1265 38.3844 23.0378 38.1814C22.949 37.9784 22.9019 37.7596 22.8992 37.538C22.8965 37.3165 22.9383 37.0966 23.0221 36.8915C23.1059 36.6864 23.2301 36.5002 23.3871 36.3439L39.4671 20.2471L22.4991 3.66793C22.3402 3.51358 22.2139 3.32891 22.1276 3.12486C22.0413 2.92079 21.9968 2.70149 21.9968 2.47994C21.9968 2.25838 22.0413 2.03909 22.1276 1.83502C22.2139 1.63096 22.3402 1.44629 22.4991 1.29193C22.8247 0.976406 23.2602 0.799957 23.7135 0.799957C24.1669 0.799957 24.6024 0.976406 24.9279 1.29193L43.0959 19.0399C43.2538 19.1933 43.3796 19.3766 43.4658 19.5791C43.552 19.7816 43.597 19.9993 43.5981 20.2194C43.5992 20.4395 43.5565 20.6576 43.4723 20.861C43.3881 21.0644 43.2643 21.249 43.1079 21.4039L25.8471 38.6959ZM4.24715 38.6959C3.92506 39.0153 3.49115 39.1964 3.03762 39.2009C2.58409 39.2054 2.14668 39.0328 1.81834 38.7199C1.65752 38.5675 1.52892 38.3844 1.44015 38.1814C1.35139 37.9784 1.30427 37.7596 1.30158 37.538C1.2989 37.3165 1.3407 37.0966 1.42452 36.8915C1.50834 36.6864 1.63246 36.5002 1.78955 36.3439L17.8695 20.2471L0.901546 3.66793C0.742607 3.51358 0.616257 3.32891 0.529976 3.12486C0.443691 2.92079 0.399231 2.70149 0.399231 2.47994C0.399231 2.25838 0.443691 2.03909 0.529976 1.83502C0.616257 1.63096 0.742607 1.44629 0.901546 1.29193C1.22706 0.976406 1.66261 0.799957 2.11595 0.799957C2.56929 0.799957 3.00483 0.976406 3.33035 1.29193L21.4959 19.0399C21.6538 19.1933 21.7796 19.3766 21.8658 19.5791C21.952 19.7816 21.997 19.9993 21.9981 20.2194C21.9992 20.4395 21.9565 20.6576 21.8723 20.861C21.7881 21.0644 21.6643 21.249 21.5079 21.4039L4.24715 38.6959Z" fill="#2B475C"/>
</svg>
