<svg width="44" height="40" viewBox="0 0 44 40" fill="none" xmlns="http://www.w3.org/2000/svg">
<path d="M18.1529 1.30406C18.475 0.984021 18.9095 0.802419 19.3636 0.797937C19.8177 0.793454 20.2556 0.966444 20.5841 1.28006C20.7449 1.43248 20.8735 1.61561 20.9622 1.81863C21.051 2.02165 21.0981 2.24041 21.1008 2.46197C21.1035 2.68353 21.0617 2.90337 20.9779 3.10848C20.8941 3.31359 20.7699 3.49979 20.6129 3.65606L4.53285 19.7529L21.5009 36.3321C21.6598 36.4864 21.7861 36.6711 21.8724 36.8751C21.9587 37.0792 22.0032 37.2985 22.0032 37.5201C22.0032 37.7416 21.9587 37.9609 21.8724 38.165C21.7861 38.369 21.6598 38.5537 21.5009 38.7081C21.1753 39.0236 20.7398 39.2 20.2865 39.2C19.8331 39.2 19.3976 39.0236 19.0721 38.7081L0.904053 20.9601C0.746163 20.8067 0.62043 20.6234 0.534205 20.4209C0.44798 20.2184 0.402994 20.0007 0.401877 19.7806C0.40076 19.5605 0.443533 19.3424 0.527698 19.139C0.611862 18.9356 0.735728 18.751 0.892053 18.5961L18.1529 1.30406ZM39.7529 1.30406C40.0749 0.984735 40.5089 0.803585 40.9624 0.799104C41.4159 0.794622 41.8533 0.967162 42.1817 1.28006C42.3425 1.43248 42.4711 1.61561 42.5598 1.81863C42.6486 2.02165 42.6957 2.24041 42.6984 2.46197C42.7011 2.68353 42.6593 2.90337 42.5755 3.10848C42.4917 3.31359 42.3675 3.49979 42.2105 3.65606L26.1305 19.7529L43.0985 36.3321C43.2574 36.4864 43.3837 36.6711 43.47 36.8751C43.5563 37.0792 43.6008 37.2985 43.6008 37.5201C43.6008 37.7416 43.5563 37.9609 43.47 38.165C43.3837 38.369 43.2574 38.5537 43.0985 38.7081C42.7729 39.0236 42.3374 39.2 41.8841 39.2C41.4307 39.2 40.9952 39.0236 40.6697 38.7081L22.5041 20.9601C22.3462 20.8067 22.2204 20.6234 22.1342 20.4209C22.048 20.2184 22.003 20.0007 22.0019 19.7806C22.0008 19.5605 22.0435 19.3424 22.1277 19.139C22.2119 18.9356 22.3357 18.751 22.4921 18.5961L39.7529 1.30406Z" fill="#2B475C"/>
</svg>
