<svg width="20" height="20" viewBox="0 0 20 20" fill="none" xmlns="http://www.w3.org/2000/svg">
<g clipPath="url(#clip0_427_4079)">
<path d="M10 0C4.55769 0 0 3.90769 0 8.84615C0 11.1769 1.04538 13.2677 2.69231 14.8315C2.49166 15.3547 2.20745 15.8418 1.85077 16.2738C1.37759 16.8479 0.854808 17.3792 0.288462 17.8615C0.164243 17.9612 0.0740181 18.097 0.0302377 18.2501C-0.0135428 18.4032 -0.00872021 18.5661 0.0440399 18.7164C0.0967999 18.8666 0.194896 18.9968 0.324792 19.089C0.454687 19.1811 0.609977 19.2306 0.769231 19.2308C2.47308 19.2308 3.69846 19.2115 4.80769 18.9185C5.8 18.6554 6.65308 18.1046 7.52385 17.3315C8.31615 17.5215 9.13385 17.6923 10 17.6923C15.4423 17.6923 20 13.7846 20 8.84615C20 3.90769 15.4423 0 10 0ZM10 1.53846C14.7115 1.53846 18.4615 4.86154 18.4615 8.84615C18.4615 12.8308 14.7115 16.1538 10 16.1538C9.16231 16.1538 8.29231 16.0092 7.5 15.7931C7.3733 15.7612 7.24057 15.7622 7.11433 15.7958C6.98809 15.8295 6.8725 15.8947 6.77846 15.9854C5.91308 16.8154 5.27538 17.2023 4.42308 17.4277C4.03077 17.5315 3.27385 17.5069 2.74 17.5485C2.84769 17.4269 2.94846 17.3623 3.05308 17.2354C3.65769 16.4969 4.20923 15.7162 4.37538 14.8315C4.39827 14.6987 4.38588 14.5623 4.33944 14.4358C4.293 14.3093 4.21414 14.1972 4.11077 14.1108C2.49923 12.78 1.53846 10.9146 1.53846 8.84615C1.53846 4.86154 5.28846 1.53846 10 1.53846ZM8.53385 4.54308C8.39845 4.57346 8.27379 4.63991 8.17308 4.73538L7.01923 5.81769L8.05308 6.94692L8.96615 6.08154H10.8169L11.5385 6.9V8.03L9.56692 9.35154C9.46154 9.4233 9.37565 9.52013 9.31697 9.63333C9.25829 9.74652 9.22867 9.87252 9.23077 10V11.5385H10.7692V10.4323L12.7408 9.11077C12.8463 9.03893 12.9322 8.94198 12.9909 8.82864C13.0496 8.71531 13.0791 8.58915 13.0769 8.46154V6.61077C13.0759 6.42485 13.0076 6.24559 12.8846 6.10615L11.7308 4.80769C11.659 4.72508 11.5704 4.65874 11.4709 4.61311C11.3714 4.56747 11.2633 4.5436 11.1538 4.54308H8.70154C8.64581 4.53697 8.58958 4.53697 8.53385 4.54308ZM9.23077 12.3077V13.8462H10.7692V12.3077H9.23077Z" fill="#2B475C"/>
</g>
<defs>
<clipPath id="clip0_427_4079">
<rect width="20" height="20" fill="white"/>
</clipPath>
</defs>
</svg>
