<svg width="20" height="20" viewBox="0 0 20 20" fill="none" xmlns="http://www.w3.org/2000/svg">
<g clipPath="url(#clip0_427_4065)">
<path d="M13.5716 5.00001L15.7144 7.14287L18.5716 4.28572L15.0001 0.714294H5.00014L1.42871 4.28572L4.28585 7.14287L6.42871 5.00001V10C6.42871 11.9286 4.11442 13.2857 3.65728 17.7143C3.63684 17.9124 3.65806 18.1126 3.71956 18.3021C3.78107 18.4915 3.8815 18.666 4.01442 18.8143C4.14799 18.9623 4.31105 19.0807 4.49311 19.1619C4.67518 19.2431 4.87222 19.2853 5.07157 19.2857H14.9287C15.1281 19.2853 15.3251 19.2431 15.5072 19.1619C15.6892 19.0807 15.8523 18.9623 15.9859 18.8143C16.1188 18.666 16.2192 18.4915 16.2807 18.3021C16.3422 18.1126 16.3634 17.9124 16.343 17.7143C15.8859 13.2857 13.5716 11.9286 13.5716 10V5.00001Z" stroke="#2B475C" strokeWidth="1.42857" strokeLinecap="round" stroke-linejoin="round"/>
<path d="M6.42871 8.92859C7.55978 9.40243 8.77383 9.64646 10.0001 9.64646C11.2265 9.64646 12.4405 9.40243 13.5716 8.92859" stroke="#2B475C" strokeWidth="1.42857" strokeLinecap="round" stroke-linejoin="round"/>
</g>
<defs>
<clipPath id="clip0_427_4065">
<rect width="20" height="20" fill="white"/>
</clipPath>
</defs>
</svg>
