<svg width="40" height="40" viewBox="0 0 40 40" fill="none" xmlns="http://www.w3.org/2000/svg">
<path d="M39.3287 24.7944L34.3904 33.4804C33.4225 35.2056 31.6249 36.1083 29.8076 35.988H25.857V40L20.9187 30.9729L25.857 21.9458V25.9579H31.4274L27.0422 18.2347L35.5953 13.2197L39.1509 19.4784C40.1781 21.0231 40.3164 23.0893 39.3287 24.7944ZM14.4199 0H24.2965C26.2323 0 27.9113 1.14343 28.7212 2.78836L30.6965 6.27884L34.1138 4.27282L28.899 13.1194L18.7261 13.2999L22.1434 11.2939L19.3582 6.37914L14.9927 14.1023L6.4198 9.08726L9.97538 2.82849C10.7853 1.16349 12.4643 0 14.4199 0ZM6.20252 33.5005L1.26421 24.8144C0.296299 23.1093 0.434572 21.0632 1.44199 19.5186L3.41731 16.0481L0 14.0421L10.1532 14.2026L15.3878 23.0692L11.9705 21.0632L9.18526 25.9579H17.9557V35.988H10.8445C9.9191 36.056 8.99345 35.8589 8.17283 35.4192C7.35221 34.9794 6.66957 34.3147 6.20252 33.5005Z" fill="#2B475C"/>
</svg>
