<svg width="20" height="20" viewBox="0 0 20 20" fill="none" xmlns="http://www.w3.org/2000/svg">
<path d="M17.5451 15.467L13.7661 11.688C14.3552 10.7211 14.666 9.61028 14.6641 8.47801C14.6641 5.06101 11.7031 2.10101 8.2861 2.10101C7.4737 2.10088 6.66924 2.2608 5.91866 2.57163C5.16808 2.88246 4.48609 3.33811 3.91164 3.91256C3.33719 4.48701 2.88154 5.169 2.57071 5.91958C2.25988 6.67016 2.09997 7.47462 2.1001 8.28701C2.1001 11.703 5.0611 14.664 8.4771 14.664C9.57205 14.665 10.6474 14.3736 11.5921 13.82L15.3911 17.621C15.5697 17.7992 15.8118 17.8993 16.0641 17.8993C16.3164 17.8993 16.5584 17.7992 16.7371 17.621L17.6801 16.678C18.0511 16.307 17.9161 15.838 17.5451 15.467ZM4.0041 8.28701C4.00397 7.72461 4.11463 7.16769 4.32976 6.64806C4.54489 6.12842 4.86028 5.65626 5.25791 5.25854C5.65555 4.86081 6.12763 4.54531 6.64722 4.33006C7.1668 4.1148 7.72369 4.00401 8.2861 4.00401C10.6521 4.00401 12.7601 6.11101 12.7601 8.47801C12.7598 9.61385 12.3085 10.7031 11.5053 11.5063C10.7022 12.3094 9.61294 12.7607 8.4771 12.761C6.1111 12.76 4.0041 10.652 4.0041 8.28701Z" fill="#2B475C"/>
</svg>
