<svg width="20" height="20" viewBox="0 0 20 20" fill="none" xmlns="http://www.w3.org/2000/svg">
<path d="M9.99984 3.33335C13.6757 3.33335 16.6665 6.32419 16.6665 10C16.6665 13.6759 13.6757 16.6667 9.99984 16.6667C6.324 16.6667 3.33317 13.6759 3.33317 10C3.33317 6.32419 6.324 3.33335 9.99984 3.33335ZM9.99984 1.66669C5.39734 1.66669 1.6665 5.39752 1.6665 10C1.6665 14.6025 5.39734 18.3334 9.99984 18.3334C14.6023 18.3334 18.3332 14.6025 18.3332 10C18.3332 5.39752 14.6023 1.66669 9.99984 1.66669ZM10.8332 12.5H9.1665V14.1667H10.8332V12.5ZM9.1665 10.8334H10.8332L11.2498 5.83335H8.74984L9.1665 10.8334Z" fill="#2B475C"/>
</svg>
