<svg width="24" height="24" viewBox="0 0 24 24" fill="none" xmlns="http://www.w3.org/2000/svg">
<path d="M9.42188 0.75C8.71875 0.75 8.48438 0.908437 8.48438 1.6875V2.39062H6.375C4.98998 2.39062 4.73438 2.64623 4.73438 4.03125V21.6094C4.73438 22.9944 4.98998 23.25 6.375 23.25H17.625C19.01 23.25 19.2656 22.9944 19.2656 21.6094V4.03125C19.2656 2.64623 19.01 2.39062 17.625 2.39062H15.5156V1.6875C15.5156 0.908437 15.2812 0.75 14.5781 0.75H9.42188ZM7.16747 4.02248C7.38619 4.02342 7.66406 4.03125 8.01562 4.03125H15.9844C17.8594 4.03125 17.625 3.79688 17.625 5.67188V19.9688C17.625 21.8438 17.8594 21.6094 15.9844 21.6094H8.01562C6.14062 21.6094 6.375 21.8438 6.375 19.9688V5.67188C6.375 4.14844 6.21984 4.01798 7.16747 4.02244V4.02248ZM7.54688 8.95312C7.28719 8.95312 7.07812 9.16219 7.07812 9.42188V12C7.07812 12.2597 7.28719 12.4688 7.54688 12.4688H16.4531C16.7128 12.4688 16.9219 12.2597 16.9219 12V9.42188C16.9219 9.16219 16.7128 8.95312 16.4531 8.95312H7.54688ZM7.54688 13.1719C7.28719 13.1719 7.07812 13.3809 7.07812 13.6406V16.2188C7.07812 16.4784 7.28719 16.6875 7.54688 16.6875H16.4531C16.7128 16.6875 16.9219 16.4784 16.9219 16.2188V13.6406C16.9219 13.3809 16.7128 13.1719 16.4531 13.1719H7.54688ZM7.54688 17.3906C7.28719 17.3906 7.07812 17.5997 7.07812 17.8594V20.4375C7.07812 20.6972 7.28719 20.9062 7.54688 20.9062H16.4531C16.7128 20.9062 16.9219 20.6972 16.9219 20.4375V17.8594C16.9219 17.5997 16.7128 17.3906 16.4531 17.3906H7.54688Z" fill="#5E8A75"/>
</svg>
